<svg id="Layer_1" data-name="Layer 1" xmlns="http://www.w3.org/2000/svg" viewBox="0 0 125.12 216.22"><defs><style>.cls-1{fill:#672271;}</style></defs><title>Símbolo - Roxo</title><path class="cls-1" d="M62.56,125.12a62.56,62.56,0,1,1,62.56-62.56A62.63,62.63,0,0,1,62.56,125.12Zm0-111.55a49,49,0,1,0,49,49A49,49,0,0,0,62.56,13.57Z"/><path class="cls-1" d="M93.54,146.25h-62a6.79,6.79,0,1,1,0-13.58h62a6.79,6.79,0,0,1,0,13.58Z"/><path class="cls-1" d="M93.54,168.25h-62a6.79,6.79,0,1,1,0-13.57h62a6.79,6.79,0,1,1,0,13.57Z"/><path class="cls-1" d="M62.56,216.22c-27.2,0-35.3-22.44-35.78-34.3a6.79,6.79,0,0,1,13.56-.58c.12,2.2,1.71,21.3,22.22,21.3,9,0,15.21-3.38,19-10.34a28.69,28.69,0,0,0,3.23-10.93,6.79,6.79,0,1,1,13.56.55C97.86,193.78,89.76,216.22,62.56,216.22Z"/></svg>